:SAMPLES-PER-SECOND 30
:FULLY-SPECIFIED
:DEGREES
318
root  -30.2852 38.2512 2.55611 -53.249 -65.8405 43.6836
RightUpLeg  -7.52843 -6.74553 -28.7174
RightLeg  38.0536 -0.206491 -0.436547
RightFoot  -17.9415 0.233474 6.15371
RightToes  1.45519e-009 0 -3.6325e-017
Spine  19.9719 -0.328754 6.09735
Spine1  8.25942 -1.58154 6.16093
HEad  -45.8636 13.1765 -2.39051
LeftShoulder1  0.700092 0.596663 -17.4234
LeftArm  -1.52337 -8.09977 -74.3651
LeftForeArm  2.57685 -60.3957 -20.0904
LeftHand  0.271727 9.38291 8.85391
RightShoulder  0.277106 -2.39635 18.9998
RightArm  30.3272 -1.85035 39.9689
RightForeArm  109.647 79.0677 111.531
RightHand  -0.250828 7.4308 -2.62856
LeftUpLeg  2.01434 20.5799 -7.21488
LeftLeg  21.1801 6.64963 2.44949
LeftFoot  -10.9109 0.0903125 -6.61169
LeftToes  -2.53752e-010 -2.07034e-011 -2.70101e-011
319
root  -30.6158 38.3963 2.22519 -59.9448 -68.903 49.736
RightUpLeg  -7.42698 -4.96192 -26.7443
RightLeg  37.044 0.881854 0.455801
RightFoot  -18.0265 0.173522 5.06694
RightToes  1.45519e-009 0 -3.6325e-017
Spine  20.7242 -0.475249 5.8109
Spine1  8.74029 -1.61127 5.9134
HEad  -46.0836 13.1613 -1.60296
LeftShoulder1  0.760119 0.282246 -16.8805
LeftArm  4.21203 -7.39005 -74.6364
LeftForeArm  2.36654 -59.6899 -19.4965
LeftHand  0.11007 8.23221 6.02504
RightShoulder  0.321279 -2.21874 18.914
RightArm  29.7346 -3.47912 37.2437
RightForeArm  93.8156 79.5706 98.4929
RightHand  -0.364593 7.63387 -3.6101
LeftUpLeg  4.1204 21.3104 -5.05725
LeftLeg  20.0927 9.19973 2.90633
LeftFoot  -10.7 0.104636 -7.27615
LeftToes  -2.53752e-010 -2.07034e-011 -2.70101e-011
320
root  -30.9822 38.4628 1.87451 -65.9278 -71.3409 55.2189
RightUpLeg  -7.00391 -4.27035 -24.9675
RightLeg  36.3488 2.39684 1.63844
RightFoot  -18.7831 0.186799 4.82376
RightToes  1.45519e-009 0 -3.6325e-017
Spine  20.9442 -0.741725 5.04656
Spine1  9.41708 -2.10937 6.39039
HEad  -45.8929 14.1076 -0.700179
LeftShoulder1  0.758499 0.336245 -17.2631
LeftArm  9.7694 -7.12179 -74.8097
LeftForeArm  3.83694 -59.4069 -19.1178
LeftHand  0.108647 8.4767 5.45887
RightShoulder  0.314549 -2.22933 18.6155
RightArm  28.8222 -4.39792 35.2376
RightForeArm  80.4011 79.6342 85.6472
RightHand  -0.39414 7.76454 -3.84054
LeftUpLeg  5.31241 22.396 -3.08683
LeftLeg  20.2805 10.0241 3.79052
LeftFoot  -11.057 0.0843355 -7.4129
LeftToes  -2.53752e-010 -2.07034e-011 -2.70101e-011
321
root  -31.356 38.5284 1.53302 -69.8657 -73.5455 59.3648
RightUpLeg  -6.92009 -4.41929 -22.9026
RightLeg  35.5776 3.76119 2.63503
RightFoot  -19.2591 0.204068 4.83355
RightToes  1.45519e-009 0 -3.6325e-017
Spine  20.5204 -1.06711 4.84215
Spine1  9.67766 -2.5105 6.64458
HEad  -44.5339 14.4096 0.289938
LeftShoulder1  0.79264 0.206154 -17.3953
LeftArm  14.4775 -6.9261 -76.0237
LeftForeArm  3.52022 -58.3656 -18.2984
LeftHand  0.0747769 7.78991 5.29928
RightShoulder  0.212712 -2.6606 19.3862
RightArm  27.7001 -5.05126 32.0775
RightForeArm  75.8731 79.568 79.039
RightHand  -0.238581 7.66873 -2.48273
LeftUpLeg  4.91357 21.3542 -1.77606
LeftLeg  21.036 9.12713 4.13704
LeftFoot  -12.0795 0.028012 -6.92425
LeftToes  -2.53752e-010 -2.07034e-011 -2.70101e-011
322
root  -31.7203 38.6401 1.25785 -72.6338 -75.2538 62.4169
RightUpLeg  -6.52786 -4.62587 -21.0629
RightLeg  34.5489 4.62581 3.17277
RightFoot  -19.2616 0.177044 4.44083
RightToes  1.45519e-009 0 -3.6325e-017
Spine  20.1721 -1.45689 4.46918
Spine1  9.80757 -3.20928 7.69592
HEad  -43.4125 14.5637 0.014691
LeftShoulder1  0.700469 0.695031 -18.3164
LeftArm  19.8631 -7.44721 -77.0874
LeftForeArm  0.219195 -57.3882 -17.8567
LeftHand  0.0944904 7.94523 5.85259
RightShoulder  0.161851 -2.85034 19.2686
RightArm  26.1058 -6.1879 29.5066
RightForeArm  75.1432 79.5526 76.2671
RightHand  -0.164965 6.91355 -1.90892
LeftUpLeg  3.39941 16.8959 -1.78304
LeftLeg  22.44 8.81288 4.32194
LeftFoot  -12.3173 0.0288259 -5.25055
LeftToes  -2.53752e-010 -2.07034e-011 -2.70101e-011
323
root  -32.0568 38.7406 1.01673 -77.4989 -76.6048 67.0816
RightUpLeg  -5.7894 -3.77964 -19.4977
RightLeg  33.7009 4.90469 3.26927
RightFoot  -19.1347 0.131414 3.83193
RightToes  1.45519e-009 0 -3.6325e-017
Spine  20.3574 -1.74542 4.77125
Spine1  10.1986 -3.26887 7.37817
HEad  -42.3618 14.4609 0.325678
LeftShoulder1  0.69034 0.686629 -17.8651
LeftArm  23.4965 -7.92923 -78.7574
LeftForeArm  -0.573248 -56.9167 -17.5792
LeftHand  0.0709678 7.64645 5.39951
RightShoulder  0.0951941 -3.11659 19.8075
RightArm  23.9584 -7.69309 27.2901
RightForeArm  73.01 79.447 73.4826
RightHand  -0.186061 6.74884 -2.12078
LeftUpLeg  2.14168 13.8135 -1.74525
LeftLeg  24.2197 7.26824 3.89249
LeftFoot  -12.5576 0.0205374 -5.11055
LeftToes  -2.53752e-010 -2.07034e-011 -2.70101e-011
324
root  -32.3736 38.8751 0.776699 -84.1776 -77.7815 73.2555
RightUpLeg  -4.62001 -2.27615 -17.9237
RightLeg  32.5192 4.85036 3.08438
RightFoot  -18.8564 0.0982385 3.43974
RightToes  1.45519e-009 0 -3.6325e-017
Spine  21.2428 -1.79726 4.94752
Spine1  10.2825 -3.06646 7.10017
HEad  -40.9523 14.2523 0.939385
LeftShoulder1  0.710768 0.604113 -17.8744
LeftArm  26.5695 -8.27531 -79.1795
LeftForeArm  -0.640248 -57.5167 -18.0334
LeftHand  0.0791756 7.73485 5.60172
RightShoulder  0.170106 -2.81976 19.2141
RightArm  21.1706 -10.2745 26.9493
RightForeArm  69.4612 79.2491 70.8421
RightHand  -0.365678 6.64268 -3.87152
LeftUpLeg  0.878002 12.6384 -1.41516
LeftLeg  26.0683 5.2461 3.13252
LeftFoot  -12.59 0.0111978 -5.87272
LeftToes  -2.53752e-010 -2.07034e-011 -2.70101e-011
325
root  -32.6865 39.0304 0.550487 -91.1284 -78.3698 80.1935
RightUpLeg  -3.85312 -1.3894 -16.9161
RightLeg  31.2267 4.99538 3.02147
RightFoot  -18.3995 0.0545618 2.90136
RightToes  1.45519e-009 0 -3.6325e-017
Spine  21.6678 -1.66953 4.9987
Spine1  10.4373 -2.57323 6.29762
HEad  -39.4293 13.9625 1.33688
LeftShoulder1  0.729994 0.496563 -17.6182
LeftArm  28.9164 -8.65266 -78.9403
LeftForeArm  -0.0310422 -58.8172 -18.9954
LeftHand  0.0963813 8.46049 5.07542
RightShoulder  0.138143 -2.94958 19.5519
RightArm  18.4874 -12.2997 26.7485
RightForeArm  71.2479 79.3448 71.6164
RightHand  -0.295281 6.70065 -3.17258
LeftUpLeg  -1.06076 12.447 -1.56215
LeftLeg  27.3431 3.98599 2.57677
LeftFoot  -11.9537 0.0414515 -5.6636
LeftToes  -2.53752e-010 -2.07034e-011 -2.70101e-011
326
root  -33.0283 39.1904 0.337187 -95.1137 -78.9774 84.3806
RightUpLeg  -2.97921 -1.48281 -15.9298
RightLeg  29.7879 5.46575 3.14071
RightFoot  -17.8594 0.0105611 2.31179
RightToes  1.45519e-009 0 -3.6325e-017
Spine  21.5079 -1.65548 5.23506
Spine1  10.987 -2.28405 5.61633
HEad  -38.2518 12.9815 1.45396
LeftShoulder1  0.731433 0.464211 -17.3886
LeftArm  29.9166 -8.75491 -78.6486
LeftForeArm  1.49931 -60.0884 -19.9346
LeftHand  0.063451 8.34088 4.03605
RightShoulder  0.0811046 -3.1704 19.7811
RightArm  15.6509 -13.8309 27.3606
RightForeArm  77.1003 79.6386 77.1723
RightHand  -0.244095 6.07231 -2.80845
LeftUpLeg  -3.48394 12.491 -1.50348
LeftLeg  28.119 2.95985 2.05868
LeftFoot  -11.5397 0.0589281 -5.829
LeftToes  -2.53752e-010 -2.07034e-011 -2.70101e-011
327
root  -33.401 39.347 0.113388 -97.0275 -79.5419 86.7141
RightUpLeg  -2.05824 -1.5076 -14.9001
RightLeg  28.1532 5.5832 3.00151
RightFoot  -17.5042 -0.00633218 2.08494
RightToes  1.45519e-009 0 -3.6325e-017
Spine  20.9782 -1.5498 5.02434
Spine1  11.4728 -2.20092 5.43187
HEad  -37.7167 11.9002 1.11931
LeftShoulder1  0.715911 0.567614 -17.7356
LeftArm  30.2565 -8.70436 -77.5972
LeftForeArm  2.31857 -61.3701 -21.0544
LeftHand  0.0529282 8.28972 3.71151
RightShoulder  0.014154 -3.42563 20.0082
RightArm  13.3451 -14.6731 28.4967
RightForeArm  83.146 79.7985 84.2676
RightHand  -0.281713 5.69995 -3.26849
LeftUpLeg  -6.08014 12.9107 -1.4903
LeftLeg  27.9023 2.91554 2.01529
LeftFoot  -11.0494 0.081548 -5.99554
LeftToes  -2.53752e-010 -2.07034e-011 -2.70101e-011
328
root  -33.7968 39.4587 -0.107885 -97.8092 -80.2667 87.8351
RightUpLeg  -1.0042 -1.52518 -13.6753
RightLeg  26.6457 5.41977 2.72348
RightFoot  -17.3537 -0.018842 1.87831
RightToes  1.45519e-009 0 -3.6325e-017
Spine  20.6953 -1.51171 4.56848
Spine1  11.4806 -2.35254 5.76212
HEad  -36.1849 11.3141 0.99589
LeftShoulder1  0.645838 0.909665 -18.2961
LeftArm  30.0942 -8.23329 -76.1621
LeftForeArm  2.41352 -62.6262 -22.3304
LeftHand  0.0579763 7.98597 4.24355
RightShoulder  -0.028649 -3.58655 20.0557
RightArm  11.5392 -14.4164 30.2452
RightForeArm  88.7254 79.8271 90.3182
RightHand  -0.277546 6.13567 -3.12592
LeftUpLeg  -8.53582 13.4648 -1.26865
LeftLeg  26.9746 2.89509 1.93942
LeftFoot  -10.8023 0.0946369 -6.41009
LeftToes  -2.53752e-010 -2.07034e-011 -2.70101e-011
329
root  -34.2204 39.5429 -0.312437 -98.5946 -80.8243 88.8757
RightUpLeg  -0.00874045 -1.10818 -12.5584
RightLeg  25.4934 4.93621 2.3359
RightFoot  -17.2524 -0.0384878 1.51542
RightToes  1.45519e-009 0 -3.6325e-017
Spine  20.3966 -1.39965 4.14137
Spine1  11.5 -2.32334 5.74026
HEad  -34.1225 10.0887 0.475047
LeftShoulder1  0.608208 1.1199 -18.9416
LeftArm  29.5361 -7.96142 -74.44
LeftForeArm  3.43591 -63.4517 -23.1489
LeftHand  0.0461108 7.7524 4.07065
RightShoulder  -0.0844535 -3.79258 20.3354
RightArm  9.77172 -13.5326 32.8031
RightForeArm  95.2201 79.7956 96.2696
RightHand  -0.287926 5.9747 -3.26963
LeftUpLeg  -10.6631 14.2104 -1.34128
LeftLeg  25.1919 3.07175 1.90691
LeftFoot  -10.368 0.116162 -6.34472
LeftToes  -2.53752e-010 -2.07034e-011 -2.70101e-011
330
root  -34.6409 39.5838 -0.487984 -98.2883 -81.4835 88.6873
RightUpLeg  1.02232 -0.910512 -11.4252
RightLeg  24.6432 4.40939 1.981
RightFoot  -17.2278 -0.0674043 0.958758
RightToes  1.45519e-009 0 -3.6325e-017
Spine  20.0191 -1.40224 4.34937
Spine1  11.9661 -2.10597 4.89066
HEad  -33.4449 9.16162 0.313901
LeftShoulder1  0.616707 1.04013 -18.424
LeftArm  28.2527 -7.84479 -73.5467
LeftForeArm  4.66845 -64.3565 -24.0912
LeftHand  0.0380339 7.38235 4.26003
RightShoulder  -0.159508 -4.06537 20.711
RightArm  7.94986 -12.3212 35.9026
RightForeArm  100.205 79.648 101.414
RightHand  -0.292031 6.49882 -3.19146
LeftUpLeg  -12.5158 14.6488 -1.45787
LeftLeg  22.8476 3.37223 1.89343
LeftFoot  -9.74932 0.152408 -6.75419
LeftToes  -2.53752e-010 -2.07034e-011 -2.70101e-011
331
root  -35.0808 39.5594 -0.647483 -100.609 -82.1197 90.7989
RightUpLeg  2.12474 -0.823517 -10.3986
RightLeg  24.3556 4.27062 1.88633
RightFoot  -17.5405 -0.105377 0.244081
RightToes  1.45519e-009 0 -3.6325e-017
Spine  20.4764 -1.06427 4.14559
Spine1  11.6443 -1.72511 4.75619
HEad  -32.2692 7.95636 -0.482923
LeftShoulder1  0.666713 0.894125 -18.9889
LeftArm  26.3457 -7.35066 -72.1461
LeftForeArm  5.36276 -65.0707 -24.9339
LeftHand  0.0329811 7.77507 3.39312
RightShoulder  -0.131554 -3.96251 20.6759
RightArm  6.74628 -10.8972 38.9837
RightForeArm  105.969 79.3721 107.311
RightHand  -0.300836 5.98479 -3.39543
LeftUpLeg  -13.5684 15.3969 -1.40944
LeftLeg  19.9447 3.14195 1.58978
LeftFoot  -8.83914 0.20905 -7.16025
LeftToes  -2.53752e-010 -2.07034e-011 -2.70101e-011
332
root  -35.5487 39.4752 -0.768134 -104.548 -82.5798 94.6999
RightUpLeg  2.73115 -0.44562 -9.5629
RightLeg  24.7199 4.13272 1.84858
RightFoot  -18.3272 -0.129762 -0.0899878
RightToes  1.45519e-009 0 -3.6325e-017
Spine  20.5333 -0.706774 3.99954
Spine1  11.9506 -1.24864 4.24197
HEad  -31.6257 7.16359 -1.12896
LeftShoulder1  0.674594 0.882957 -19.194
LeftArm  23.4445 -6.69321 -71.3703
LeftForeArm  6.47126 -66.0394 -26.147
LeftHand  0.0505301 7.75867 4.24511
RightShoulder  -0.100787 -3.85452 20.3109
RightArm  5.94633 -8.7045 42.5793
RightForeArm  113.06 79.0119 113.377
RightHand  -0.304737 6.15517 -3.38905
LeftUpLeg  -14.7162 15.7265 -1.6155
LeftLeg  17.2304 3.22733 1.42892
LeftFoot  -7.20525 0.306744 -7.27999
LeftToes  -2.53752e-010 -2.07034e-011 -2.70101e-011
